{
  "asset": {
    "version": "2.0",
    "generator": "jpov-wall-rock"
  },
  "scene": 0,
  "scenes": [
    {
      "nodes": [
        0
      ]
    }
  ],
  "nodes": [
    {
      "mesh": 0
    }
  ],
  "meshes": [
    {
      "primitives": [
        {
          "attributes": {
            "POSITION": 0,
            "NORMAL": 1,
            "TEXCOORD_0": 2
          },
          "indices": 3,
          "material": 0
        }
      ]
    }
  ],
  "materials": [
    {
      "name": "wall_rock",
      "pbrMetallicRoughness": {
        "baseColorTexture": {
          "index": 1
        },
        "baseColorFactor": [
          1,
          1,
          1,
          1
        ]
      },
      "normalTexture": {
        "index": 0,
        "scale": 1.0
      }
    }
  ],
  "buffers": [
    {
      "byteLength": 328,
      "uri": "wall_rock.bin"
    }
  ],
  "bufferViews": [
    {
      "buffer": 0,
      "byteOffset": 0,
      "byteLength": 96,
      "target": "ARRAY_BUFFER"
    },
    {
      "buffer": 0,
      "byteOffset": 96,
      "byteLength": 96,
      "target": "ARRAY_BUFFER"
    },
    {
      "buffer": 0,
      "byteOffset": 192,
      "byteLength": 64,
      "target": "ARRAY_BUFFER"
    },
    {
      "buffer": 0,
      "byteOffset": 256,
      "byteLength": 72,
      "target": "ELEMENT_ARRAY_BUFFER"
    }
  ],
  "accessors": [
    {
      "bufferView": 0,
      "componentType": 5126,
      "count": 8,
      "type": "VEC3",
      "min": [
        -2.0,
        0.0,
        -0.1
      ],
      "max": [
        2.0,
        3.0,
        0.1
      ]
    },
    {
      "bufferView": 1,
      "componentType": 5126,
      "count": 8,
      "type": "VEC3"
    },
    {
      "bufferView": 2,
      "componentType": 5126,
      "count": 8,
      "type": "VEC2"
    },
    {
      "bufferView": 3,
      "componentType": 5123,
      "count": 36,
      "type": "SCALAR"
    }
  ],
  "images": [
    {
      "uri": "rock_normal.png",
      "mimeType": "image/png"
    },
    {
      "uri": "rock_x4.png",
      "mimeType": "image/png"
    }
  ],
  "textures": [
    {
      "source": 0,
      "sampler": 0
    },
    {
      "source": 1,
      "sampler": 0
    }
  ],
  "samplers": [
    {
      "magFilter": 9729,
      "minFilter": 9987,
      "wrapS": 10497,
      "wrapT": 10497
    }
  ]
}